# Blender 5.2.0 LTS
# www.blender.org
o KOSM_p0_rocket_v01
v 0.000000 0.000000 -1.000000
v 0.000000 10.000000 -1.000000
v 0.707107 0.000000 -0.707107
v 0.707107 10.000000 -0.707107
v 1.000000 0.000000 0.000000
v 1.000000 10.000000 0.000000
v 0.707107 0.000000 0.707107
v 0.707107 10.000000 0.707107
v 0.000000 0.000000 1.000000
v 0.000000 10.000000 1.000000
v -0.707107 0.000000 0.707107
v -0.707107 10.000000 0.707107
v -1.000000 0.000000 0.000000
v -1.000000 10.000000 0.000000
v -0.707107 0.000000 -0.707107
v -0.707107 10.000000 -0.707107
v 0.000000 12.000000 0.000000
vn 0.3827 -0.0000 -0.9239
vn 0.9239 -0.0000 -0.3827
vn 0.9239 -0.0000 0.3827
vn 0.3827 -0.0000 0.9239
vn -0.3827 -0.0000 0.9239
vn -0.9239 -0.0000 0.3827
vn -0.0000 1.0000 -0.0000
vn -0.9239 -0.0000 -0.3827
vn -0.3827 -0.0000 -0.9239
vn -0.0000 -1.0000 -0.0000
vn 0.3474 0.4194 -0.8387
vn 0.8387 0.4194 -0.3474
vn 0.8387 0.4194 0.3474
vn 0.3474 0.4194 0.8387
vn -0.3474 0.4194 0.8387
vn -0.8387 0.4194 0.3474
vn -0.8387 0.4194 -0.3474
vn -0.3474 0.4194 -0.8387
vt 1.000000 1.000000
vt 0.875000 0.500000
vt 1.000000 0.500000
vt 0.875000 1.000000
vt 0.750000 0.500000
vt 0.750000 1.000000
vt 0.625000 0.500000
vt 0.625000 1.000000
vt 0.500000 0.500000
vt 0.500000 1.000000
vt 0.375000 0.500000
vt 0.375000 1.000000
vt 0.250000 0.500000
vt 0.010000 0.250000
vt 0.250000 0.010000
vt 0.490000 0.250000
vt 0.250000 1.000000
vt 0.125000 0.500000
vt 0.125000 1.000000
vt 0.000000 0.500000
vt 0.919706 0.080294
vt 0.580294 0.080294
vt 0.580294 0.419706
vt 0.250000 0.490000
vt 0.250000 0.250000
vt 0.419706 0.419706
vt 0.419706 0.080294
vt 0.080294 0.080294
vt 0.080294 0.419706
vt 0.000000 1.000000
vt 0.750000 0.490000
vt 0.919706 0.419706
vt 0.990000 0.250000
vt 0.750000 0.010000
vt 0.510000 0.250000
s 0
f 2/1/1 3/2/1 1/3/1
f 4/4/2 5/5/2 3/2/2
f 6/6/3 7/7/3 5/5/3
f 8/8/4 9/9/4 7/7/4
f 10/10/5 11/11/5 9/9/5
f 12/12/6 13/13/6 11/11/6
f 14/14/7 10/15/7 6/16/7
f 14/17/8 15/18/8 13/13/8
f 16/19/9 1/20/9 15/18/9
f 7/21/10 11/22/10 15/23/10
f 2/24/11 17/25/11 4/26/11
f 4/26/12 17/25/12 6/16/12
f 6/16/13 17/25/13 8/27/13
f 8/27/14 17/25/14 10/15/14
f 10/15/15 17/25/15 12/28/15
f 12/28/16 17/25/16 14/14/16
f 8/21/7 16/23/7 12/22/7
f 14/14/17 17/25/17 16/29/17
f 16/29/18 17/25/18 2/24/18
f 2/1/1 4/4/1 3/2/1
f 4/4/2 6/6/2 5/5/2
f 6/6/3 8/8/3 7/7/3
f 8/8/4 10/10/4 9/9/4
f 10/10/5 12/12/5 11/11/5
f 12/12/6 14/17/6 13/13/6
f 6/16/7 4/26/7 2/24/7
f 2/24/7 16/29/7 14/14/7
f 14/14/7 12/28/7 10/15/7
f 10/15/7 8/27/7 6/16/7
f 6/16/7 2/24/7 14/14/7
f 14/17/8 16/19/8 15/18/8
f 16/19/9 2/30/9 1/20/9
f 15/23/10 1/31/10 3/32/10
f 3/32/10 5/33/10 7/21/10
f 7/21/10 9/34/10 11/22/10
f 11/22/10 13/35/10 15/23/10
f 15/23/10 3/32/10 7/21/10
f 16/23/7 4/32/7 2/31/7
f 4/32/7 8/21/7 6/33/7
f 8/21/7 12/22/7 10/34/7
f 12/22/7 16/23/7 14/35/7
f 16/23/7 8/21/7 4/32/7
